<?xml version="1.0" standalone="no"?>
<!DOCTYPE svg PUBLIC "-//W3C//DTD SVG 20010904//EN"
 "http://www.w3.org/TR/2001/REC-SVG-20010904/DTD/svg10.dtd">
<svg version="1.0" xmlns="http://www.w3.org/2000/svg"
 width="137.000000pt" height="137.000000pt" viewBox="0 0 137.000000 137.000000"
 preserveAspectRatio="xMidYMid meet">
<metadata>
Created by potrace 1.11, written by Peter Selinger 2001-2013
</metadata>
<g transform="translate(0.000000,137.000000) scale(0.100000,-0.100000)"
fill="#000000" stroke="none">
<path d="M600 1348 c3 -3 37 -8 75 -11 419 -37 681 -471 507 -841 -115 -243
-388 -396 -635 -356 -260 41 -466 280 -493 570 -10 106 -17 83 -11 -35 9 -191
66 -317 206 -455 134 -132 241 -179 421 -186 195 -6 337 45 468 170 227 217
277 563 118 825 -89 146 -217 244 -386 295 -50 16 -282 35 -270 24z"/>
<path d="M654 1130 c-12 -4 -23 -14 -26 -22 -3 -7 -5 -79 -5 -160 -1 -131 1
-151 18 -172 13 -17 26 -23 41 -19 44 10 48 28 48 190 0 140 -2 155 -20 173
-22 22 -25 23 -56 10z"/>
<path d="M475 994 c-22 -14 -57 -47 -78 -72 -102 -127 -94 -326 20 -452 113
-126 266 -156 417 -81 184 90 250 328 139 504 -78 124 -203 172 -203 77 0 -19
14 -39 55 -73 72 -63 90 -102 90 -197 -1 -83 -16 -122 -66 -171 -73 -71 -180
-92 -270 -52 -96 44 -144 120 -144 228 1 88 24 136 99 200 40 34 54 52 51 67
-11 54 -50 62 -110 22z"/>
</g>
</svg>
